<svg xmlns="http://www.w3.org/2000/svg" viewBox="0 0 64 64" fill="none">
  <defs>
    <linearGradient id="brickRed" x1="10" y1="14" x2="56" y2="56" gradientUnits="userSpaceOnUse">
      <stop stop-color="#ff7b67" />
      <stop offset="1" stop-color="#8f2f24" />
    </linearGradient>
    <linearGradient id="brickRedDeep" x1="12" y1="18" x2="54" y2="54" gradientUnits="userSpaceOnUse">
      <stop stop-color="#e95f4a" />
      <stop offset="1" stop-color="#6a1f18" />
    </linearGradient>
    <linearGradient id="brickBevel" x1="16" y1="18" x2="48" y2="48" gradientUnits="userSpaceOnUse">
      <stop stop-color="rgba(255,255,255,0.22)" />
      <stop offset="1" stop-color="rgba(0,0,0,0.18)" />
    </linearGradient>
    <pattern id="brickSpeckle" width="8" height="8" patternUnits="userSpaceOnUse">
      <circle cx="1.3" cy="2.2" r="0.7" fill="rgba(0,0,0,0.12)" />
      <circle cx="6.4" cy="1.5" r="0.6" fill="rgba(255,255,255,0.12)" />
      <circle cx="4.1" cy="6.2" r="0.7" fill="rgba(0,0,0,0.10)" />
      <circle cx="7.1" cy="6.8" r="0.6" fill="rgba(255,255,255,0.10)" />
    </pattern>
  </defs>

  <!-- Ground shadow -->
  <ellipse cx="33" cy="51" rx="22" ry="7" fill="rgba(0,0,0,0.18)" />

  <!-- Back brick -->
  <g transform="rotate(4 34 40)" stroke="rgba(0,0,0,0.34)" stroke-width="2" stroke-linejoin="round">
    <rect x="14" y="34" width="40" height="14" rx="5.5" fill="url(#brickRedDeep)" />
    <rect x="14" y="34" width="40" height="14" rx="5.5" fill="url(#brickSpeckle)" opacity="0.55" />
    <rect x="14" y="34" width="40" height="14" rx="5.5" fill="url(#brickBevel)" opacity="0.55" />
    <path d="M18 38.2h32" stroke="rgba(255,255,255,0.22)" stroke-linecap="round" />
    <path d="M18 45.8h32" stroke="rgba(0,0,0,0.18)" stroke-linecap="round" />
    <path d="M26 34v14" stroke="rgba(0,0,0,0.14)" stroke-linecap="round" />
    <path d="M40 34v14" stroke="rgba(0,0,0,0.14)" stroke-linecap="round" />
  </g>

  <!-- Front-left brick -->
  <g transform="rotate(-8 25 32)" stroke="rgba(0,0,0,0.34)" stroke-width="2" stroke-linejoin="round">
    <rect x="9" y="26" width="32" height="13" rx="5.5" fill="url(#brickRed)" />
    <rect x="9" y="26" width="32" height="13" rx="5.5" fill="url(#brickSpeckle)" opacity="0.50" />
    <path d="M13 30.2h24" stroke="rgba(255,255,255,0.22)" stroke-linecap="round" />
    <path d="M13 36h24" stroke="rgba(0,0,0,0.18)" stroke-linecap="round" />
    <path d="M22.5 26v13" stroke="rgba(0,0,0,0.14)" stroke-linecap="round" />
    <path d="M33.5 26v13" stroke="rgba(0,0,0,0.12)" stroke-linecap="round" />
    <path d="M18 33.2l2.4 1.6" stroke="rgba(0,0,0,0.22)" stroke-linecap="round" />
  </g>

  <!-- Front-right brick -->
  <g transform="rotate(7 41 26)" stroke="rgba(0,0,0,0.34)" stroke-width="2" stroke-linejoin="round">
    <rect x="23" y="18" width="32" height="13" rx="5.5" fill="url(#brickRed)" />
    <rect x="23" y="18" width="32" height="13" rx="5.5" fill="url(#brickSpeckle)" opacity="0.50" />
    <path d="M27 22.2h24" stroke="rgba(255,255,255,0.22)" stroke-linecap="round" />
    <path d="M27 28h24" stroke="rgba(0,0,0,0.18)" stroke-linecap="round" />
    <path d="M36.5 18v13" stroke="rgba(0,0,0,0.14)" stroke-linecap="round" />
    <path d="M47.5 18v13" stroke="rgba(0,0,0,0.12)" stroke-linecap="round" />
    <path d="M44 25.2l-2.2 1.5" stroke="rgba(0,0,0,0.22)" stroke-linecap="round" />
  </g>

  <!-- Top brick -->
  <g transform="rotate(-2 33 22)" stroke="rgba(0,0,0,0.34)" stroke-width="2" stroke-linejoin="round">
    <rect x="16" y="14" width="34" height="13" rx="5.5" fill="url(#brickRedDeep)" />
    <rect x="16" y="14" width="34" height="13" rx="5.5" fill="url(#brickSpeckle)" opacity="0.50" />
    <path d="M20 18.2h26" stroke="rgba(255,255,255,0.22)" stroke-linecap="round" />
    <path d="M20 24h26" stroke="rgba(0,0,0,0.18)" stroke-linecap="round" />
    <path d="M29.5 14v13" stroke="rgba(0,0,0,0.12)" stroke-linecap="round" />
    <path d="M39.5 14v13" stroke="rgba(0,0,0,0.12)" stroke-linecap="round" />
  </g>
</svg>
