<svg xmlns="http://www.w3.org/2000/svg" viewBox="0 0 64 64" fill="none">
  <defs>
    <linearGradient id="wool" x1="10" y1="18" x2="46" y2="54" gradientUnits="userSpaceOnUse">
      <stop stop-color="#ffffff" stop-opacity="0.98" />
      <stop offset="1" stop-color="#cfd7e0" stop-opacity="0.98" />
    </linearGradient>
    <linearGradient id="woolBack" x1="8" y1="20" x2="42" y2="52" gradientUnits="userSpaceOnUse">
      <stop stop-color="#eef2f7" stop-opacity="0.95" />
      <stop offset="1" stop-color="#bcc6d1" stop-opacity="0.95" />
    </linearGradient>
    <linearGradient id="face" x1="28" y1="20" x2="62" y2="54" gradientUnits="userSpaceOnUse">
      <stop stop-color="#384252" />
      <stop offset="1" stop-color="#0f1624" />
    </linearGradient>
  </defs>

  <!-- Ground shadow -->
  <ellipse cx="34" cy="55" rx="20" ry="6.5" fill="rgba(0,0,0,0.16)" />

  <!-- Back sheep -->
  <g opacity="0.92">
    <!-- Legs -->
    <g fill="url(#face)" stroke="rgba(0,0,0,0.32)" stroke-width="2" stroke-linejoin="round">
      <rect x="12.5" y="43" width="5.6" height="10.5" rx="2.4" />
      <rect x="20.2" y="43" width="5.6" height="10.5" rx="2.4" />
      <rect x="28.2" y="43" width="5.6" height="10.5" rx="2.4" />
    </g>

    <!-- Body -->
    <g stroke="rgba(0,0,0,0.28)" stroke-width="2" stroke-linejoin="round">
      <ellipse cx="22" cy="34.5" rx="13.8" ry="10" fill="url(#woolBack)" />
      <circle cx="13.8" cy="32" r="5.4" fill="rgba(255,255,255,0.16)" />
      <circle cx="21.6" cy="28.8" r="5.8" fill="rgba(255,255,255,0.14)" />
      <circle cx="30" cy="31" r="5.0" fill="rgba(255,255,255,0.12)" />
      <circle cx="10.2" cy="36" r="3.0" fill="url(#woolBack)" />
    </g>

    <!-- Head -->
    <g stroke="rgba(0,0,0,0.32)" stroke-width="2" stroke-linejoin="round">
      <path
        d="M30 30c0-3.8 3.1-6.9 6.9-6.9h3.1c3.8 0 6.9 3.1 6.9 6.9v4.6c0 3.8-3.1 6.9-6.9 6.9h-3.1c-3.8 0-6.9-3.1-6.9-6.9V30Z"
        fill="url(#face)"
      />
      <path d="M33.6 24.8l-4.6-3.4 1.1 6.2c1.1-1.3 2.2-2.2 3.5-2.8Z" fill="url(#face)" />
    </g>
    <circle cx="41.6" cy="33" r="1.25" fill="rgba(255,255,255,0.92)" />
    <circle cx="41.6" cy="33" r="0.55" fill="rgba(0,0,0,0.55)" />
    <path d="M36.7 36.9c1.4 1.1 2.8 1.1 4.2 0" stroke="rgba(255,255,255,0.55)" stroke-width="1.8" stroke-linecap="round" />
  </g>

  <!-- Front sheep -->
  <g>
    <!-- Legs -->
    <g fill="url(#face)" stroke="rgba(0,0,0,0.34)" stroke-width="2" stroke-linejoin="round">
      <rect x="22" y="45" width="6" height="10.8" rx="2.6" />
      <rect x="30.4" y="45" width="6" height="10.8" rx="2.6" />
      <rect x="39" y="45" width="6" height="10.8" rx="2.6" />
      <rect x="47.2" y="45" width="6" height="10.8" rx="2.6" />
    </g>

    <!-- Body -->
    <g stroke="rgba(0,0,0,0.28)" stroke-width="2" stroke-linejoin="round">
      <ellipse cx="33" cy="37" rx="16.5" ry="11.6" fill="url(#wool)" />
      <circle cx="22.5" cy="33.5" r="6.2" fill="rgba(255,255,255,0.18)" />
      <circle cx="33" cy="29.6" r="6.6" fill="rgba(255,255,255,0.16)" />
      <circle cx="44" cy="32" r="6.0" fill="rgba(255,255,255,0.14)" />
      <circle cx="16.6" cy="37.8" r="3.4" fill="url(#wool)" />
    </g>

    <!-- Head -->
    <g stroke="rgba(0,0,0,0.34)" stroke-width="2" stroke-linejoin="round">
      <path
        d="M40 33c0-4.4 3.6-8 8-8h4c4.4 0 8 3.6 8 8v5.2c0 4.4-3.6 8-8 8h-4c-4.4 0-8-3.6-8-8V33Z"
        fill="url(#face)"
      />
      <path d="M44.6 26.6l-5.8-4 1.3 7.2c1.4-1.4 2.9-2.4 4.5-3.2Z" fill="url(#face)" />
      <path d="M50.8 41.6c1.6 1.3 3.2 1.3 4.8 0" stroke="rgba(255,255,255,0.58)" stroke-linecap="round" />
    </g>
    <circle cx="55" cy="36.6" r="1.5" fill="rgba(255,255,255,0.92)" />
    <circle cx="55" cy="36.6" r="0.6" fill="rgba(0,0,0,0.55)" />
  </g>
</svg>
