<svg xmlns="http://www.w3.org/2000/svg" viewBox="0 0 64 64" fill="none">
  <defs>
    <linearGradient id="grain" x1="16" y1="10" x2="48" y2="56" gradientUnits="userSpaceOnUse">
      <stop stop-color="#ffe7a0" />
      <stop offset="0.55" stop-color="#ffd166" />
      <stop offset="1" stop-color="#b88924" />
    </linearGradient>
    <linearGradient id="grainHi" x1="18" y1="10" x2="46" y2="40" gradientUnits="userSpaceOnUse">
      <stop stop-color="rgba(255,255,255,0.28)" />
      <stop offset="1" stop-color="rgba(255,255,255,0)" />
    </linearGradient>
    <linearGradient id="stem" x1="18" y1="18" x2="46" y2="60" gradientUnits="userSpaceOnUse">
      <stop stop-color="#ffe3a8" />
      <stop offset="1" stop-color="#9a7422" />
    </linearGradient>
    <linearGradient id="tie" x1="24" y1="38" x2="42" y2="54" gradientUnits="userSpaceOnUse">
      <stop stop-color="#2b3340" />
      <stop offset="1" stop-color="#0f1624" />
    </linearGradient>
  </defs>

  <!-- Ground shadow -->
  <ellipse cx="32" cy="54" rx="15" ry="6" fill="rgba(0,0,0,0.16)" />

  <!-- Stems -->
  <g fill="none" stroke="rgba(0,0,0,0.26)" stroke-width="2.2" stroke-linecap="round" stroke-linejoin="round">
    <path d="M22 56c2-9 3-16 2-29" stroke="url(#stem)" />
    <path d="M27 56c1-9 2-16 1-31" stroke="url(#stem)" />
    <path d="M32 56c0-9 1-16 0-33" stroke="url(#stem)" />
    <path d="M37 56c-1-9-2-16-1-31" stroke="url(#stem)" />
    <path d="M42 56c-2-9-3-16-2-29" stroke="url(#stem)" />
  </g>

  <!-- Wheat heads -->
  <g fill="url(#grain)" stroke="rgba(0,0,0,0.26)" stroke-width="1.6" stroke-linejoin="round">
    <!-- Left -->
    <ellipse cx="22.8" cy="18" rx="3.3" ry="2.2" transform="rotate(-28 22.8 18)" />
    <ellipse cx="20.4" cy="20.4" rx="3.3" ry="2.2" transform="rotate(24 20.4 20.4)" />
    <ellipse cx="22.8" cy="22.8" rx="3.3" ry="2.2" transform="rotate(-28 22.8 22.8)" />
    <ellipse cx="20.4" cy="25.2" rx="3.3" ry="2.2" transform="rotate(24 20.4 25.2)" />
    <ellipse cx="22.8" cy="27.6" rx="3.3" ry="2.2" transform="rotate(-28 22.8 27.6)" />
    <ellipse cx="20.4" cy="30" rx="3.3" ry="2.2" transform="rotate(24 20.4 30)" />

    <!-- Left-mid -->
    <ellipse cx="27.6" cy="16.2" rx="3.4" ry="2.3" transform="rotate(-22 27.6 16.2)" />
    <ellipse cx="25.2" cy="18.8" rx="3.4" ry="2.3" transform="rotate(22 25.2 18.8)" />
    <ellipse cx="27.6" cy="21.2" rx="3.4" ry="2.3" transform="rotate(-22 27.6 21.2)" />
    <ellipse cx="25.2" cy="23.8" rx="3.4" ry="2.3" transform="rotate(22 25.2 23.8)" />
    <ellipse cx="27.6" cy="26.2" rx="3.4" ry="2.3" transform="rotate(-22 27.6 26.2)" />
    <ellipse cx="25.2" cy="28.8" rx="3.4" ry="2.3" transform="rotate(22 25.2 28.8)" />

    <!-- Center -->
    <ellipse cx="32.4" cy="14.6" rx="3.6" ry="2.4" transform="rotate(-18 32.4 14.6)" />
    <ellipse cx="30" cy="17.4" rx="3.6" ry="2.4" transform="rotate(18 30 17.4)" />
    <ellipse cx="32.4" cy="19.8" rx="3.6" ry="2.4" transform="rotate(-18 32.4 19.8)" />
    <ellipse cx="30" cy="22.6" rx="3.6" ry="2.4" transform="rotate(18 30 22.6)" />
    <ellipse cx="32.4" cy="25" rx="3.6" ry="2.4" transform="rotate(-18 32.4 25)" />
    <ellipse cx="30" cy="27.8" rx="3.6" ry="2.4" transform="rotate(18 30 27.8)" />

    <!-- Right-mid -->
    <ellipse cx="37.2" cy="16.2" rx="3.4" ry="2.3" transform="rotate(22 37.2 16.2)" />
    <ellipse cx="39.6" cy="18.8" rx="3.4" ry="2.3" transform="rotate(-22 39.6 18.8)" />
    <ellipse cx="37.2" cy="21.2" rx="3.4" ry="2.3" transform="rotate(22 37.2 21.2)" />
    <ellipse cx="39.6" cy="23.8" rx="3.4" ry="2.3" transform="rotate(-22 39.6 23.8)" />
    <ellipse cx="37.2" cy="26.2" rx="3.4" ry="2.3" transform="rotate(22 37.2 26.2)" />
    <ellipse cx="39.6" cy="28.8" rx="3.4" ry="2.3" transform="rotate(-22 39.6 28.8)" />

    <!-- Right -->
    <ellipse cx="42" cy="18" rx="3.3" ry="2.2" transform="rotate(28 42 18)" />
    <ellipse cx="44.4" cy="20.4" rx="3.3" ry="2.2" transform="rotate(-24 44.4 20.4)" />
    <ellipse cx="42" cy="22.8" rx="3.3" ry="2.2" transform="rotate(28 42 22.8)" />
    <ellipse cx="44.4" cy="25.2" rx="3.3" ry="2.2" transform="rotate(-24 44.4 25.2)" />
    <ellipse cx="42" cy="27.6" rx="3.3" ry="2.2" transform="rotate(28 42 27.6)" />
    <ellipse cx="44.4" cy="30" rx="3.3" ry="2.2" transform="rotate(-24 44.4 30)" />
  </g>

  <!-- Highlights -->
  <g fill="none" stroke="url(#grainHi)" stroke-width="1.6" stroke-linecap="round" opacity="0.9">
    <path d="M23 18.6c1.8-2.2 3.7-3.6 5.8-4.2" />
    <path d="M33 15c2.2 0.6 4.3 2 6.2 4.2" />
  </g>

  <!-- Tie (wrap + small bow) -->
  <g stroke="rgba(0,0,0,0.28)" stroke-width="2" stroke-linejoin="round">
    <path d="M22.5 44c6.2 3.8 12.8 3.8 19 0c-0.7 4.4-3.1 7-9.5 7s-8.8-2.6-9.5-7Z" fill="url(#tie)" />
    <path d="M31.8 46.2l-4.6-3 0.8 6.2 3.8-3.2Z" fill="rgba(255,255,255,0.10)" />
    <path d="M32.2 46.2l4.6-3-0.8 6.2-3.8-3.2Z" fill="rgba(255,255,255,0.08)" />
  </g>
</svg>
